<svg width="75" height="75" viewBox="0 0 75 75" fill="none" xmlns="http://www.w3.org/2000/svg">
<rect width="75" height="75" rx="37.5" fill="white"/>
<path fill-rule="evenodd" clip-rule="evenodd" d="M53.0172 48.8857H33.5168L33.8926 47.8351C33.9993 47.5367 34.2413 47.3065 34.5447 47.2147L36.6167 46.5882C37.564 46.3017 37.564 44.9603 36.6167 44.6738L34.5447 44.0472C34.2413 43.9554 33.9993 43.7253 33.8926 43.4268L33.1228 41.2747C32.8065 40.3904 31.5559 40.3904 31.2397 41.2747L30.4699 43.4268C30.3631 43.7253 30.1212 43.9554 29.8178 44.0472L27.7458 44.6738C26.7984 44.9603 26.7984 46.3017 27.7458 46.5882L29.8178 47.2147C30.1212 47.3065 30.3631 47.5367 30.4699 47.8351L30.8457 48.8857H18.5C18.5 48.8857 27.1293 30.2614 30.506 26.7473C33.8827 23.2333 55.25 13.6357 56 14.0107C56.75 14.3856 45.1382 32.7212 45.1382 32.7212L53.0172 48.8857ZM41.8638 23.1037C41.5475 22.2194 40.2969 22.2194 39.9806 23.1037L39.6811 23.9411C39.5744 24.2395 39.3324 24.4697 39.029 24.5615L38.3869 24.7556C37.4395 25.0421 37.4395 26.3835 38.3869 26.67L39.029 26.8642C39.3324 26.9559 39.5744 27.1861 39.6811 27.4846L39.9806 28.3219C40.2969 29.2062 41.5475 29.2062 41.8638 28.3219L42.1633 27.4846C42.27 27.1861 42.512 26.9559 42.8154 26.8642L43.4574 26.67C44.4048 26.3835 44.4048 25.0421 43.4574 24.7556L42.8154 24.5615C42.512 24.4697 42.27 24.2395 42.1633 23.9411L41.8638 23.1037Z" fill="black"/>
<path d="M33.5168 48.8857L33.046 48.7174L32.8069 49.3857H33.5168V48.8857ZM53.0172 48.8857V49.3857H53.8171L53.4666 48.6667L53.0172 48.8857ZM33.8926 47.8351L33.4218 47.6667L33.4218 47.6667L33.8926 47.8351ZM34.5447 47.2147L34.4 46.7361L34.4 46.7361L34.5447 47.2147ZM36.6167 46.5882L36.7614 47.0668L36.7614 47.0668L36.6167 46.5882ZM36.6167 44.6738L36.4719 45.1524L36.4719 45.1524L36.6167 44.6738ZM34.5447 44.0472L34.6894 43.5686L34.6894 43.5686L34.5447 44.0472ZM33.8926 43.4268L33.4218 43.5952L33.4218 43.5952L33.8926 43.4268ZM33.1228 41.2747L32.652 41.4431L33.1228 41.2747ZM31.2397 41.2747L30.7689 41.1063L30.7689 41.1063L31.2397 41.2747ZM30.4699 43.4268L30.9407 43.5952L30.9407 43.5952L30.4699 43.4268ZM29.8178 44.0472L29.673 43.5686L29.673 43.5686L29.8178 44.0472ZM27.7458 44.6738L27.8905 45.1524L27.8905 45.1524L27.7458 44.6738ZM27.7458 46.5882L27.6011 47.0668L27.6011 47.0668L27.7458 46.5882ZM29.8178 47.2147L29.9625 46.7361L29.9625 46.7361L29.8178 47.2147ZM30.4699 47.8351L30.9407 47.6667L30.9407 47.6667L30.4699 47.8351ZM30.8457 48.8857V49.3857H31.5555L31.3165 48.7174L30.8457 48.8857ZM18.5 48.8857L18.0463 48.6755L17.7173 49.3857H18.5V48.8857ZM30.506 26.7473L30.1454 26.4009L30.506 26.7473ZM56 14.0107L55.7764 14.4579L56 14.0107ZM45.1382 32.7212L44.7158 32.4537L44.5665 32.6894L44.6888 32.9403L45.1382 32.7212ZM39.9806 23.1037L39.5098 22.9354L39.5098 22.9354L39.9806 23.1037ZM41.8638 23.1037L41.393 23.2721L41.393 23.2721L41.8638 23.1037ZM39.6811 23.9411L40.1519 24.1095L40.1519 24.1095L39.6811 23.9411ZM39.029 24.5615L38.8843 24.0829L38.8843 24.0829L39.029 24.5615ZM38.3869 24.7556L38.2422 24.277L38.2422 24.277L38.3869 24.7556ZM38.3869 26.67L38.5317 26.1914L38.5317 26.1914L38.3869 26.67ZM39.029 26.8642L38.8843 27.3428L38.8843 27.3428L39.029 26.8642ZM39.6811 27.4846L39.2103 27.653L39.2103 27.653L39.6811 27.4846ZM39.9806 28.3219L40.4514 28.1535L40.4514 28.1535L39.9806 28.3219ZM41.8638 28.3219L42.3346 28.4903L42.3346 28.4903L41.8638 28.3219ZM42.1633 27.4846L41.6925 27.3162L41.6925 27.3162L42.1633 27.4846ZM42.8154 26.8642L42.9601 27.3428L42.9601 27.3428L42.8154 26.8642ZM43.4574 26.67L43.6022 27.1486L43.6022 27.1486L43.4574 26.67ZM43.4574 24.7556L43.3127 25.2342L43.3127 25.2342L43.4574 24.7556ZM42.8154 24.5615L42.9601 24.0829L42.9601 24.0829L42.8154 24.5615ZM42.1633 23.9411L42.634 23.7727L42.634 23.7727L42.1633 23.9411ZM33.5168 49.3857H53.0172V48.3857H33.5168V49.3857ZM33.4218 47.6667L33.046 48.7174L33.9876 49.0541L34.3634 48.0035L33.4218 47.6667ZM34.4 46.7361C33.9448 46.8738 33.5819 47.219 33.4218 47.6667L34.3634 48.0035C34.4167 47.8543 34.5377 47.7392 34.6894 47.6933L34.4 46.7361ZM36.4719 46.1096L34.4 46.7361L34.6894 47.6933L36.7614 47.0668L36.4719 46.1096ZM36.4719 45.1524C36.9456 45.2956 36.9456 45.9663 36.4719 46.1096L36.7614 47.0668C38.1825 46.637 38.1825 44.6249 36.7614 44.1952L36.4719 45.1524ZM34.4 44.5258L36.4719 45.1524L36.7614 44.1952L34.6894 43.5686L34.4 44.5258ZM33.4218 43.5952C33.5819 44.0429 33.9448 44.3882 34.4 44.5258L34.6894 43.5686C34.5377 43.5227 34.4167 43.4076 34.3634 43.2584L33.4218 43.5952ZM32.652 41.4431L33.4218 43.5952L34.3634 43.2584L33.5936 41.1063L32.652 41.4431ZM31.7104 41.4431C31.8686 41.0009 32.4939 41.0009 32.652 41.4431L33.5936 41.1063C33.1192 39.7798 31.2433 39.7798 30.7689 41.1063L31.7104 41.4431ZM30.9407 43.5952L31.7104 41.4431L30.7689 41.1063L29.9991 43.2584L30.9407 43.5952ZM29.9625 44.5258C30.4176 44.3882 30.7806 44.0429 30.9407 43.5952L29.9991 43.2584C29.9457 43.4076 29.8248 43.5227 29.673 43.5686L29.9625 44.5258ZM27.8905 45.1524L29.9625 44.5258L29.673 43.5686L27.6011 44.1952L27.8905 45.1524ZM27.8905 46.1096C27.4168 45.9663 27.4169 45.2956 27.8905 45.1524L27.6011 44.1952C26.18 44.6249 26.18 46.637 27.6011 47.0668L27.8905 46.1096ZM29.9625 46.7361L27.8905 46.1096L27.6011 47.0668L29.673 47.6933L29.9625 46.7361ZM30.9407 47.6667C30.7806 47.219 30.4176 46.8738 29.9625 46.7361L29.673 47.6933C29.8248 47.7392 29.9457 47.8543 29.9991 48.0035L30.9407 47.6667ZM31.3165 48.7174L30.9407 47.6667L29.9991 48.0035L30.3749 49.0541L31.3165 48.7174ZM18.5 49.3857H30.8457V48.3857H18.5V49.3857ZM30.1454 26.4009C29.2521 27.3305 28.0516 29.207 26.7717 31.4403C25.4817 33.6913 24.0821 36.3574 22.7906 38.9085C21.4987 41.4605 20.3128 43.9019 19.4501 45.705C19.0186 46.6066 18.6678 47.3489 18.4249 47.866C18.3034 48.1245 18.2088 48.3267 18.1446 48.4644C18.1125 48.5332 18.088 48.5859 18.0714 48.6214C18.0632 48.6392 18.0569 48.6527 18.0527 48.6618C18.0506 48.6663 18.049 48.6697 18.048 48.672C18.0474 48.6732 18.047 48.674 18.0468 48.6746C18.0466 48.6749 18.0465 48.6751 18.0464 48.6753C18.0464 48.6755 18.0463 48.6755 18.5 48.8857C18.9537 49.0959 18.9537 49.0959 18.9538 49.0958C18.9538 49.0956 18.9539 49.0954 18.954 49.0952C18.9543 49.0946 18.9547 49.0938 18.9552 49.0927C18.9562 49.0905 18.9577 49.0871 18.9598 49.0827C18.9639 49.0738 18.9701 49.0606 18.9783 49.043C18.9946 49.0078 19.0189 48.9555 19.0509 48.8871C19.1147 48.7502 19.2088 48.5489 19.3299 48.2913C19.572 47.7761 19.9218 47.0359 20.3521 46.1366C21.2128 44.3378 22.3953 41.9035 23.6828 39.3601C24.9708 36.8159 26.3616 34.167 27.6393 31.9376C28.9271 29.6905 30.0715 27.9212 30.8665 27.0938L30.1454 26.4009ZM56.2236 13.5635C56.1215 13.5124 56.0244 13.5034 55.9741 13.5009C55.9156 13.4981 55.8598 13.5021 55.8127 13.5076C55.7183 13.5186 55.6125 13.5411 55.5038 13.5688C55.2839 13.6248 54.9979 13.7161 54.6616 13.8346C53.986 14.0726 53.0666 14.4346 51.9824 14.887C49.812 15.7927 46.9577 17.0706 44.0229 18.4693C41.0885 19.8678 38.0673 21.3903 35.565 22.7853C34.3141 23.4827 33.1881 24.151 32.2653 24.7581C31.3501 25.3602 30.608 25.9196 30.1454 26.4009L30.8665 27.0938C31.2481 26.6966 31.9124 26.1873 32.815 25.5935C33.71 25.0046 34.8131 24.3494 36.052 23.6587C38.5292 22.2777 41.5298 20.7653 44.4531 19.372C47.376 17.979 50.2151 16.7081 52.3676 15.8099C53.4448 15.3604 54.3442 15.0066 54.9938 14.7778C55.3201 14.6628 55.5735 14.583 55.7506 14.5379C55.8404 14.515 55.8975 14.5045 55.9282 14.5009C55.9437 14.4991 55.9409 14.5005 55.9256 14.4998C55.9186 14.4994 55.8551 14.4972 55.7764 14.4579L56.2236 13.5635ZM45.1382 32.7212C45.5607 32.9887 45.5607 32.9886 45.5608 32.9885C45.5609 32.9884 45.561 32.9881 45.5612 32.9879C45.5616 32.9873 45.5621 32.9864 45.5628 32.9853C45.5642 32.9831 45.5664 32.9797 45.5692 32.9753C45.5748 32.9664 45.5831 32.9532 45.5941 32.9358C45.6161 32.9011 45.6487 32.8495 45.6912 32.7822C45.7762 32.6476 45.9007 32.4502 46.0589 32.199C46.3752 31.6964 46.8262 30.9782 47.365 30.1152C48.4425 28.3894 49.8718 26.0837 51.2779 23.7659C52.6832 21.4493 54.0685 19.1155 55.0565 17.335C55.5494 16.4466 55.9492 15.6858 56.2033 15.1303C56.3287 14.8561 56.4281 14.6117 56.4827 14.4188C56.5087 14.3269 56.5349 14.2122 56.5348 14.0971C56.5348 14.0176 56.5209 13.7121 56.2236 13.5635L55.7764 14.4579C55.6565 14.3979 55.5914 14.3008 55.5617 14.2264C55.5355 14.1607 55.5348 14.1101 55.5348 14.0976C55.5348 14.0739 55.5384 14.0834 55.5205 14.1464C55.4874 14.2633 55.4142 14.4513 55.2939 14.7143C55.0566 15.2333 54.6722 15.9664 54.1821 16.8498C53.2038 18.6127 51.8267 20.933 50.4229 23.2472C49.0198 25.5601 47.593 27.8618 46.5167 29.5856C45.9787 30.4474 45.5283 31.1646 45.2126 31.6663C45.0547 31.9171 44.9305 32.114 44.8457 32.2482C44.8033 32.3153 44.7708 32.3667 44.749 32.4013C44.738 32.4187 44.7297 32.4318 44.7242 32.4405C44.7214 32.4449 44.7193 32.4482 44.7179 32.4504C44.7172 32.4515 44.7167 32.4523 44.7163 32.4529C44.7162 32.4532 44.716 32.4534 44.716 32.4535C44.7159 32.4536 44.7158 32.4537 45.1382 32.7212ZM53.4666 48.6667L45.5877 32.5021L44.6888 32.9403L52.5677 49.1048L53.4666 48.6667ZM40.4514 23.2721C40.6095 22.83 41.2348 22.83 41.393 23.2721L42.3346 22.9354C41.8601 21.6089 39.9842 21.6089 39.5098 22.9354L40.4514 23.2721ZM40.1519 24.1095L40.4514 23.2721L39.5098 22.9354L39.2103 23.7727L40.1519 24.1095ZM39.1737 25.0401C39.6288 24.9024 39.9918 24.5572 40.1519 24.1095L39.2103 23.7727C39.1569 23.9219 39.036 24.037 38.8843 24.0829L39.1737 25.0401ZM38.5317 25.2342L39.1737 25.0401L38.8843 24.0829L38.2422 24.277L38.5317 25.2342ZM38.5317 26.1914C38.058 26.0482 38.058 25.3775 38.5317 25.2342L38.2422 24.277C36.8211 24.7068 36.8211 26.7189 38.2422 27.1486L38.5317 26.1914ZM39.1737 26.3856L38.5317 26.1914L38.2422 27.1486L38.8843 27.3428L39.1737 26.3856ZM40.1519 27.3162C39.9918 26.8685 39.6288 26.5232 39.1737 26.3856L38.8843 27.3428C39.036 27.3887 39.1569 27.5037 39.2103 27.653L40.1519 27.3162ZM40.4514 28.1535L40.1519 27.3162L39.2103 27.653L39.5098 28.4903L40.4514 28.1535ZM41.393 28.1535C41.2348 28.5957 40.6095 28.5957 40.4514 28.1535L39.5098 28.4903C39.9842 29.8168 41.8601 29.8168 42.3346 28.4903L41.393 28.1535ZM41.6925 27.3162L41.393 28.1535L42.3346 28.4903L42.634 27.653L41.6925 27.3162ZM42.6707 26.3856C42.2155 26.5232 41.8526 26.8685 41.6925 27.3162L42.634 27.653C42.6874 27.5037 42.8084 27.3887 42.9601 27.3428L42.6707 26.3856ZM43.3127 26.1914L42.6707 26.3856L42.9601 27.3428L43.6022 27.1486L43.3127 26.1914ZM43.3127 25.2342C43.7864 25.3775 43.7864 26.0482 43.3127 26.1914L43.6022 27.1486C45.0232 26.7189 45.0232 24.7068 43.6022 24.277L43.3127 25.2342ZM42.6707 25.0401L43.3127 25.2342L43.6022 24.277L42.9601 24.0829L42.6707 25.0401ZM41.6925 24.1095C41.8526 24.5572 42.2155 24.9024 42.6707 25.0401L42.9601 24.0829C42.8084 24.037 42.6874 23.9219 42.634 23.7727L41.6925 24.1095ZM41.393 23.2721L41.6925 24.1095L42.634 23.7727L42.3346 22.9353L41.393 23.2721Z" fill="black"/>
<rect x="11" y="51.5" width="52.5" height="3.75" rx="1.875" fill="black"/>
</svg>
